# xmcd
#
# Track frame offsets:
# 150
# 17305
# 32502
# 51548
# 74149
# 109084
# 127211
# 144030
# 166136
# 188145
# 207613
# 231472
# 249071
# 265159
#
# Disc length: 3758 seconds
#
#
# Revision: 0
# Processed by: cddbd v1.5.1PL0 Copyright (c) Steve Scherf et al.
# Submitted via: FreeRIP 2.51 
#
DISCID=c80eac0e
DTITLE=Usher - Usher
DYEAR=2001
DGENRE=R&B
TTITLE0=You Make Me Wanna
TTITLE1=Chatt-Town
TTITLE2=I Wanna Be
TTITLE3=Sweet Baby
TTITLE4=Superstar
TTITLE5=Dream Girl
TTITLE6=Jolly Dance
TTITLE7=Only Human
TTITLE8=The Groove
TTITLE9=Keep Dreamin'
TTITLE10=A Mother's Luv
TTITLE11=Featuring KoNo And Vivian - Chatt Town (Vocode Mix)
TTITLE12=Featuring Gloria Gaynor, KoNo And Vivian - I Wanna Be (The Party Mix)
TTITLE13=Dream Girl (The Different Mix)
EXTD=
EXTT0=
EXTT1=
EXTT2=
EXTT3=
EXTT4=
EXTT5=
EXTT6=
EXTT7=
EXTT8=
EXTT9=
EXTT10=
EXTT11=
EXTT12=
EXTT13=
PLAYORDER=
